<mxfile host="app.diagrams.net" modified="2025-10-08T23:22:50.616627Z" agent="python" version="22.0.0"><diagram id="1759965770616645" name="Layered_Logical"><mxGraphModel dx="1200" dy="800" grid="1" gridSize="10" guides="1" tooltips="1" connect="1" arrows="1" fold="1" page="1" pageScale="1" pageWidth="2200" pageHeight="1400" math="0" shadow="0"><root><mxCell id="0" /><mxCell id="1" parent="0" /><mxCell id="frame" value="Layered (Closed by Default)" style="shape=swimlane;rounded=1;horizontal=0;align=center;verticalAlign=top;startSize=32;collapsible=0;" vertex="1" parent="1"><mxGeometry x="40" y="40" width="2000" height="1180" as="geometry" /></mxCell><mxCell id="L1" value="Presentation Layer" style="swimlane;rounded=0;horizontal=0;startSize=28;" vertex="1" parent="frame"><mxGeometry x="60" y="80" width="1960" height="180" as="geometry" /></mxCell><mxCell id="L2" value="API / Controller Layer" style="swimlane;rounded=0;horizontal=0;startSize=28;" vertex="1" parent="frame"><mxGeometry x="60" y="270" width="1960" height="180" as="geometry" /></mxCell><mxCell id="L3" value="Domain / Business Layer" style="swimlane;rounded=0;horizontal=0;startSize=28;" vertex="1" parent="frame"><mxGeometry x="60" y="460" width="1960" height="200" as="geometry" /></mxCell><mxCell id="L4" value="Persistence Layer" style="swimlane;rounded=0;horizontal=0;startSize=28;" vertex="1" parent="frame"><mxGeometry x="60" y="670" width="1960" height="200" as="geometry" /></mxCell><mxCell id="L5" value="Infrastructure Layer" style="swimlane;rounded=0;horizontal=0;startSize=28;" vertex="1" parent="frame"><mxGeometry x="60" y="880" width="1960" height="320" as="geometry" /></mxCell><mxCell id="ui" value="React SPA" style="rounded=1;whiteSpace=wrap;html=1;" vertex="1" parent="L1"><mxGeometry x="120" y="140" width="300" height="80" as="geometry" /></mxCell><mxCell id="api" value="Express Controllers" style="rounded=1;whiteSpace=wrap;html=1;" vertex="1" parent="L2"><mxGeometry x="120" y="330" width="360" height="90" as="geometry" /></mxCell><mxCell id="auth" value="Auth (JWT/Refresh)" style="rounded=1;whiteSpace=wrap;html=1;" vertex="1" parent="L2"><mxGeometry x="540" y="330" width="360" height="90" as="geometry" /></mxCell><mxCell id="svc" value="Use Cases / Services" style="rounded=1;whiteSpace=wrap;html=1;" vertex="1" parent="L3"><mxGeometry x="120" y="530" width="400" height="120" as="geometry" /></mxCell><mxCell id="repo" value="Repositories (Prisma)" style="rounded=1;whiteSpace=wrap;html=1;" vertex="1" parent="L4"><mxGeometry x="120" y="740" width="420" height="120" as="geometry" /></mxCell><mxCell id="cachefac" value="Cache/Queue Facade" style="rounded=1;whiteSpace=wrap;html=1;" vertex="1" parent="L4"><mxGeometry x="600" y="740" width="360" height="120" as="geometry" /></mxCell><mxCell id="db" value="Postgres + pgvector" style="shape=cylinder3;whiteSpace=wrap;html=1;" vertex="1" parent="L5"><mxGeometry x="120" y="950" width="360" height="140" as="geometry" /></mxCell><mxCell id="redis" value="Redis (cache, rate-limit, jobs)" style="rounded=1;whiteSpace=wrap;html=1;" vertex="1" parent="L5"><mxGeometry x="540" y="980" width="360" height="110" as="geometry" /></mxCell><mxCell id="obj" value="Object Storage (MinIO/S3)" style="shape=cylinder3;whiteSpace=wrap;html=1;" vertex="1" parent="L5"><mxGeometry x="960" y="940" width="380" height="150" as="geometry" /></mxCell><mxCell id="ai" value="External AI Providers" style="rounded=1;whiteSpace=wrap;html=1;dashed=1;" vertex="1" parent="L5"><mxGeometry x="1400" y="980" width="360" height="110" as="geometry" /></mxCell><mxCell id="le1" value="" style="endArrow=classic;" edge="1" parent="1" source="ui" target="api"><mxGeometry relative="1" as="geometry" /></mxCell><mxCell id="le2" value="" style="endArrow=classic;" edge="1" parent="1" source="api" target="svc"><mxGeometry relative="1" as="geometry" /></mxCell><mxCell id="le3" value="" style="endArrow=classic;" edge="1" parent="1" source="svc" target="repo"><mxGeometry relative="1" as="geometry" /></mxCell><mxCell id="le4" value="" style="endArrow=classic;" edge="1" parent="1" source="repo" target="db"><mxGeometry relative="1" as="geometry" /></mxCell><mxCell id="le5" value="" style="endArrow=classic;" edge="1" parent="1" source="repo" target="cachefac"><mxGeometry relative="1" as="geometry" /></mxCell><mxCell id="le6" value="" style="endArrow=classic;dashed=1;" edge="1" parent="1" source="svc" target="ai"><mxGeometry relative="1" as="geometry" /></mxCell></root></mxGraphModel></diagram></mxfile>